<?xml version="1.0" standalone="no"?>
<!DOCTYPE svg PUBLIC "-//W3C//DTD SVG 20010904//EN"
 "http://www.w3.org/TR/2001/REC-SVG-20010904/DTD/svg10.dtd">
<svg version="1.0" xmlns="http://www.w3.org/2000/svg"
 width="225.000000pt" height="225.000000pt" viewBox="0 0 225.000000 225.000000"
 preserveAspectRatio="xMidYMid meet">

<g transform="translate(0.000000,225.000000) scale(0.100000,-0.100000)"
fill="#000000" stroke="none">
<path d="M1197 1960 c-118 -37 -210 -119 -264 -236 -26 -54 -28 -69 -28 -174
0 -109 2 -118 32 -180 84 -170 272 -271 450 -242 143 24 262 112 326 241 30
62 32 71 32 181 0 110 -2 119 -32 181 -18 36 -50 86 -72 110 -105 119 -290
169 -444 119z m265 -118 c192 -95 243 -344 102 -501 -26 -29 -69 -62 -102 -78
-74 -37 -191 -40 -263 -7 -266 123 -255 495 19 599 58 22 186 15 244 -13z"/>
<path d="M421 1809 c-53 -17 -76 -32 -126 -82 -84 -84 -109 -148 -103 -267 7
-144 71 -241 197 -302 57 -27 77 -32 146 -32 143 1 256 69 321 194 26 50 29
64 29 155 0 84 -4 107 -24 147 -82 167 -265 244 -440 187z m253 -88 c133 -74
183 -234 115 -369 -50 -101 -135 -153 -250 -155 -117 -2 -204 56 -257 172 -21
45 -24 64 -20 125 3 39 12 86 22 103 38 75 110 133 191 154 54 15 145 1 199
-30z"/>
<path d="M430 675 l0 -405 530 0 530 0 0 405 0 405 -530 0 -530 0 0 -405z"/>
<path d="M1795 924 c-132 -35 -250 -66 -262 -69 -23 -5 -23 -7 -23 -185 0
-161 2 -179 18 -184 31 -10 514 -126 523 -126 5 0 10 142 11 315 3 275 1 315
-12 314 -8 -1 -123 -30 -255 -65z"/>
</g>
</svg>
